<svg width="600" height="400" viewBox="0 0 600 400" xmlns="http://www.w3.org/2000/svg">
  <defs>
    <linearGradient id="skyGradient" x1="0%" y1="0%" x2="0%" y2="100%">
      <stop offset="0%" style="stop-color:#87CEEB;stop-opacity:1" />
      <stop offset="100%" style="stop-color:#98FB98;stop-opacity:1" />
    </linearGradient>
    <linearGradient id="groundGradient" x1="0%" y1="0%" x2="0%" y2="100%">
      <stop offset="0%" style="stop-color:#90EE90;stop-opacity:1" />
      <stop offset="100%" style="stop-color:#228B22;stop-opacity:1" />
    </linearGradient>
  </defs>
  
  <!-- Sky background -->
  <rect width="600" height="250" fill="url(#skyGradient)"/>
  
  <!-- Ground -->
  <rect y="250" width="600" height="150" fill="url(#groundGradient)"/>
  
  <!-- Platform in center -->
  <rect x="200" y="220" width="200" height="30" fill="#666" rx="5"/>
  
  <!-- Character/Player -->
  <circle cx="300" cy="210" r="8" fill="#8B4513"/>
  <rect x="295" y="200" width="10" height="15" fill="#4169E1" rx="2"/>
  <rect x="297" y="185" width="6" height="8" fill="#FFE4C4" rx="3"/>
  
  <!-- Trees -->
  <rect x="100" y="230" width="8" height="20" fill="#8B4513"/>
  <circle cx="104" cy="225" r="12" fill="#228B22"/>
  
  <rect x="480" y="235" width="6" height="15" fill="#8B4513"/>
  <circle cx="483" cy="230" r="10" fill="#228B22"/>
  
  <!-- Blocks/Bricks -->
  <rect x="150" y="240" width="15" height="10" fill="#CD853F" stroke="#8B4513" stroke-width="1"/>
  <rect x="450" y="245" width="15" height="10" fill="#CD853F" stroke="#8B4513" stroke-width="1"/>
  
  <!-- Title text -->
  <text x="300" y="50" text-anchor="middle" font-family="Arial, sans-serif" font-size="36" font-weight="bold" fill="#2C3E50">🌍 3D World</text>
  <text x="300" y="80" text-anchor="middle" font-family="Arial, sans-serif" font-size="18" fill="#34495E">Build, Explore, Connect</text>
  
  <!-- Controls hint -->
  <text x="300" y="350" text-anchor="middle" font-family="Arial, sans-serif" font-size="14" fill="#7F8C8D">WASD to move • Mouse to look • E to pick up • B to place</text>
  
  <!-- Farcaster Mini App badge -->
  <rect x="20" y="20" width="120" height="25" fill="#8A63D2" rx="12"/>
  <text x="80" y="37" text-anchor="middle" font-family="Arial, sans-serif" font-size="12" font-weight="bold" fill="white">Farcaster Mini App</text>
</svg>